<svg xmlns="http://www.w3.org/2000/svg" viewBox="0 0 448.92 124.76"><defs><style>.cls-1{fill:#fff;}.cls-2{fill:#e08020;}.cls-2,.cls-3,.cls-4,.cls-5{fill-rule:evenodd;}.cls-3{fill:#91b939;}.cls-4{fill:#ffb605;}.cls-5{fill:#d81c24;}</style></defs><g id="Layer_2" data-name="Layer 2"><g id="Layer_1-2" data-name="Layer 1"><path class="cls-1" d="M144.85,56.52a17.67,17.67,0,0,1,7.07,1.41,18.24,18.24,0,0,1,9.6,9.61,18.19,18.19,0,0,1,0,14.09,18.7,18.7,0,0,1-3.87,5.81,17.85,17.85,0,0,1-5.73,3.91,18.19,18.19,0,0,1-14.09,0A18.3,18.3,0,0,1,132,87.44a18.5,18.5,0,0,1-3.92-5.81,17.76,17.76,0,0,1-1.41-7V42h7.19V56.52Zm0,29.06a10.56,10.56,0,0,0,4.24-.85,10.92,10.92,0,0,0,5.82-5.85,11,11,0,0,0,.84-4.28,10.77,10.77,0,0,0-.84-4.24,11,11,0,0,0-5.82-5.81,10.74,10.74,0,0,0-4.24-.85h-11V74.6a11,11,0,0,0,3.18,7.79,11.07,11.07,0,0,0,7.79,3.19Zm38.43-29.22a17.63,17.63,0,0,1,7.06,1.41,18.65,18.65,0,0,1,5.78,3.88A18,18,0,0,1,200,67.38a17.63,17.63,0,0,1,1.41,7.06V92.6h-7.18V74.44a10.56,10.56,0,0,0-.85-4.24,10.84,10.84,0,0,0-2.34-3.47,11,11,0,0,0-7.79-3.19,10.74,10.74,0,0,0-4.24.85,11,11,0,0,0-5.81,5.81,10.56,10.56,0,0,0-.85,4.24V92.6H165.2V41.83h7.18V60.07a17.27,17.27,0,0,1,5.05-2.74A17.52,17.52,0,0,1,183.28,56.36Zm38.34,0a17.67,17.67,0,0,1,7.07,1.41,18.09,18.09,0,0,1,5.73,3.88,18.42,18.42,0,0,1,3.88,5.73,17.63,17.63,0,0,1,1.41,7.06V92.6H221.62a17.75,17.75,0,0,1-7-1.41,18.29,18.29,0,0,1-9.73-9.73,18.28,18.28,0,0,1,0-14.08,18,18,0,0,1,3.92-5.73,18.55,18.55,0,0,1,5.81-3.88A17.75,17.75,0,0,1,221.62,56.36Zm10.9,29.06v-11a10.73,10.73,0,0,0-.84-4.24,11,11,0,0,0-5.82-5.81,10.7,10.7,0,0,0-4.24-.85,11,11,0,0,0-10.13,6.66,10.73,10.73,0,0,0-.84,4.24,11,11,0,0,0,.84,4.28,10.88,10.88,0,0,0,2.35,3.51,10.59,10.59,0,0,0,3.51,2.34,10.81,10.81,0,0,0,4.27.85ZM273,56.2,254.1,92.52,235.29,56.2h8.08l2.58,5q1.45,2.79,2.91,5.65c1,1.91,1.92,3.76,2.86,5.53s1.74,3.31,2.38,4.6l2.79-5.36c1.05-2,2.08-4,3.11-6s2-3.83,2.82-5.53,1.54-3,2-3.83Zm13.59.16a17.67,17.67,0,0,1,7.07,1.41,18.24,18.24,0,0,1,9.6,9.61,17.63,17.63,0,0,1,1.42,7.06V92.6H286.58a17.75,17.75,0,0,1-7-1.41,18.29,18.29,0,0,1-9.73-9.73,18.28,18.28,0,0,1,0-14.08,17.88,17.88,0,0,1,3.92-5.73,18.33,18.33,0,0,1,5.81-3.88A17.75,17.75,0,0,1,286.58,56.36Zm10.9,29.06v-11a10.56,10.56,0,0,0-.85-4.24,10.84,10.84,0,0,0-2.34-3.47,11.06,11.06,0,0,0-3.47-2.34,10.74,10.74,0,0,0-4.24-.85,10.91,10.91,0,0,0-10.13,6.66,10.74,10.74,0,0,0-.85,4.24,11,11,0,0,0,3.19,7.79,11,11,0,0,0,7.79,3.19Zm9.28-10.9a17.63,17.63,0,0,1,1.42-7.06,18.13,18.13,0,0,1,9.64-9.61,18.3,18.3,0,0,1,14.09,0,18.78,18.78,0,0,1,5.77,3.88,17.88,17.88,0,0,1,3.92,5.73A17.63,17.63,0,0,1,343,74.52V92.69h-7.18V74.52a10.74,10.74,0,0,0-.85-4.24,11.29,11.29,0,0,0-2.34-3.47,11,11,0,0,0-7.79-3.19,10.74,10.74,0,0,0-4.24.85,11,11,0,0,0-5.81,5.81,10.56,10.56,0,0,0-.85,4.24V92.69h-7.19Zm56.75-18.16a17.67,17.67,0,0,1,7.07,1.41,18.24,18.24,0,0,1,9.6,9.61,17.46,17.46,0,0,1,1.42,7.06V92.6H363.51a17.75,17.75,0,0,1-7-1.41,18.19,18.19,0,0,1-5.81-3.91,18.43,18.43,0,0,1-3.92-5.82,18.28,18.28,0,0,1,0-14.08,18,18,0,0,1,3.92-5.73,18.44,18.44,0,0,1,5.81-3.88A17.75,17.75,0,0,1,363.51,56.36Zm10.9,29.06v-11a10.56,10.56,0,0,0-.85-4.24,10.84,10.84,0,0,0-2.34-3.47,11.06,11.06,0,0,0-3.47-2.34,10.74,10.74,0,0,0-4.24-.85,11.07,11.07,0,0,0-7.79,3.19,11.18,11.18,0,0,0-2.34,3.47,10.73,10.73,0,0,0-.84,4.24,11,11,0,0,0,3.18,7.79,11.07,11.07,0,0,0,7.79,3.19Zm56.35-29.06a17.63,17.63,0,0,1,7.06,1.41,18.65,18.65,0,0,1,5.78,3.88,18,18,0,0,1,3.91,5.73,17.63,17.63,0,0,1,1.41,7.06V92.6h-7.18V74.44a10.56,10.56,0,0,0-.85-4.24,10.84,10.84,0,0,0-2.34-3.47,11,11,0,0,0-7.79-3.19,10.74,10.74,0,0,0-4.24.85,11.18,11.18,0,0,0-3.47,2.34,11,11,0,0,0-2.34,3.47,10.56,10.56,0,0,0-.85,4.24V92.6h-7.18V74.44a10.74,10.74,0,0,0-.85-4.24A10.86,10.86,0,0,0,406,64.39a11,11,0,0,0-4.28-.85,10.74,10.74,0,0,0-4.24.85A11.06,11.06,0,0,0,394,66.73a10.84,10.84,0,0,0-2.34,3.47,10.56,10.56,0,0,0-.85,4.24V92.6h-7.18V74.44A17.63,17.63,0,0,1,385,67.38a18.11,18.11,0,0,1,9.65-9.61,17.68,17.68,0,0,1,7-1.41,17.45,17.45,0,0,1,8.27,2,18.09,18.09,0,0,1,6.26,5.36,18,18,0,0,1,6.3-5.36A17.52,17.52,0,0,1,430.76,56.36Z"/><path class="cls-1" d="M104.14,44.45a4.27,4.27,0,1,1-4.27,4.26,4.26,4.26,0,0,1,4.27-4.26M18.08,56.36a17.67,17.67,0,0,1,7.07,1.41,18.61,18.61,0,0,1,5.77,3.88,17.85,17.85,0,0,1,3.91,5.73,17.46,17.46,0,0,1,1.42,7.06V92.6H29.06V74.44a10.56,10.56,0,0,0-.85-4.24,10.86,10.86,0,0,0-5.85-5.81,11,11,0,0,0-4.28-.85,10.77,10.77,0,0,0-4.24.85,11.29,11.29,0,0,0-3.47,2.34A11.18,11.18,0,0,0,8,70.2a10.74,10.74,0,0,0-.85,4.24V92.6H0V41.83H7.18V60.07a17.27,17.27,0,0,1,5.05-2.74A17.6,17.6,0,0,1,18.08,56.36Zm38.35,0a17.63,17.63,0,0,1,7.06,1.41,18.3,18.3,0,0,1,9.61,9.61,17.63,17.63,0,0,1,1.41,7.06V92.6H56.43a17.76,17.76,0,0,1-7-1.41,18.23,18.23,0,0,1-9.72-9.73,18.16,18.16,0,0,1,0-14.08,17.85,17.85,0,0,1,3.91-5.73,18.55,18.55,0,0,1,5.81-3.88A17.76,17.76,0,0,1,56.43,56.36Zm10.9,29.06v-11a10.74,10.74,0,0,0-.85-4.24,11.18,11.18,0,0,0-2.34-3.47,11.29,11.29,0,0,0-3.47-2.34,10.77,10.77,0,0,0-4.24-.85,11,11,0,0,0-7.79,3.19A10.84,10.84,0,0,0,46.3,70.2a10.56,10.56,0,0,0-.85,4.24,10.86,10.86,0,0,0,.85,4.28,10.76,10.76,0,0,0,5.85,5.85,10.83,10.83,0,0,0,4.28.85ZM98.41,56.36v7.18H94.77a10.77,10.77,0,0,0-4.24.85,11.29,11.29,0,0,0-3.47,2.34,11.18,11.18,0,0,0-2.34,3.47,10.74,10.74,0,0,0-.85,4.24V92.6H76.61V74.44A17.63,17.63,0,0,1,78,67.38a17.88,17.88,0,0,1,3.92-5.73,18.44,18.44,0,0,1,5.81-3.88,17.75,17.75,0,0,1,7-1.41Zm2.18,0h7.1V92.6h-7.1Z"/><path class="cls-1" d="M448.92,118.85v-15.7h-1.49L444.19,105l.42,1.29,2.57-1.48h0v14.06ZM431.55,104.6H439v0l-6.56,14.21h1.78l6.56-14.59v-1.11h-9.2Zm-7.08-.38c2.07,0,3.18,2,3.18,5.07,0,1.26-1.55,2.56-3.24,2.56s-3-1.43-3-3.55C421.41,105.94,422.64,104.22,424.47,104.22Zm3.18,7.21c-.52,3.58-2.51,5.72-5.15,6.1a8.24,8.24,0,0,1-1.62.1v1.45a9,9,0,0,0,1.87-.15c4-.63,6.66-4.25,6.66-9.48,0-4-1.86-6.57-4.8-6.57s-5,2.64-5,5.52c0,2.67,1.65,4.77,4.34,4.77a4.42,4.42,0,0,0,3.6-1.74Zm-13.39,7.42v-15.7h-1.48L409.53,105l.42,1.29,2.57-1.48h.05v14.06ZM393.58,112c.17-1.57,1.09-3.57,3.19-3.57s2.89,2,2.87,3.57Zm6.83,5.07a7.26,7.26,0,0,1-3,.58c-2.06,0-3.86-1.19-3.88-4.35h7.77c0-.28.05-.57.05-1,0-2-.91-5.22-4.43-5.22-3.08,0-5.09,2.58-5.09,6.17,0,3.41,2,5.76,5.32,5.76a8.39,8.39,0,0,0,3.59-.71Zm-10.5,0a5.73,5.73,0,0,1-2.47.56c-2.3,0-4-1.74-4-4.5,0-2.45,1.38-4.57,4-4.57a4.53,4.53,0,0,1,2.35.59l.44-1.41a6.3,6.3,0,0,0-2.74-.61c-3.52,0-5.85,2.58-5.85,6.1s2.16,5.83,5.43,5.83a7.33,7.33,0,0,0,3.1-.65Zm-10.77-5.2c0-3.88-2.43-4.74-3.85-4.74a4.09,4.09,0,0,0-3.67,2.12h0l-.11-1.84h-1.55c.05.92.09,1.77.09,2.95v8.47h1.74v-7a3.12,3.12,0,0,1,3-3.26c2,0,2.66,1.63,2.66,3.5v6.75h1.74Zm-12.59-4.46h-1.74v11.42h1.74Zm.27-3.21a1.11,1.11,0,0,0-1.13-1.17,1.19,1.19,0,0,0,0,2.37A1.12,1.12,0,0,0,366.82,104.22Zm-5.34-.82a6.58,6.58,0,0,0-3.27-.75c-2.91,0-4.88,1.78-4.88,4.21,0,2.2,1.63,3.61,4,4.51,2.08.83,2.94,1.8,2.94,3.37,0,1.72-1.26,2.87-3.4,2.87a6.57,6.57,0,0,1-3.44-1l-.48,1.44a7.33,7.33,0,0,0,3.82,1c3.43,0,5.28-2,5.28-4.49,0-2.28-1.32-3.6-3.9-4.69-2.14-.9-3.1-1.7-3.1-3.27,0-1.15.84-2.51,3.06-2.51a5.43,5.43,0,0,1,2.8.73Zm-17.69,21.36h1.41V101.08h-1.41Zm-14.31-13c.09-1.16.71-2.71,2.2-2.71s2,1.49,2,2.71Zm6,4.46a8.59,8.59,0,0,1-2.85.48c-1.68,0-3.1-.8-3.19-2.79h7a7.38,7.38,0,0,0,.08-1.23c0-3.77-1.84-5.79-4.67-5.79-3.42,0-5.34,2.9-5.34,6.25,0,3.62,2.05,5.89,5.65,5.89a9.91,9.91,0,0,0,3.78-.67Zm-15.93-9.07h-1.53v2.28h1.53v5.38c0,1.3.06,4.22,3.42,4.22a6.13,6.13,0,0,0,2.07-.28l0-2.36a4.78,4.78,0,0,1-1,.1c-.94,0-1.38-.59-1.38-2v-5.07h2.58v-2.28h-2.58v-3l-3.06.9Zm-3.06.39a6.43,6.43,0,0,0-2.89-.65c-2.6,0-4.27,1.6-4.27,3.69,0,1.28.79,2.52,3,3.4,1.28.54,1.68.92,1.68,1.63s-.53,1.18-1.62,1.18a6.09,6.09,0,0,1-2.72-.78l-.59,2.24a6.83,6.83,0,0,0,3.29.78c2.92,0,4.59-1.47,4.59-3.69,0-1.62-.92-2.75-2.89-3.56-1.34-.57-1.78-.9-1.78-1.55s.5-1.11,1.44-1.11a4.83,4.83,0,0,1,2.2.6ZM304,114.84a1.94,1.94,0,0,1-1.95,2,1.43,1.43,0,0,1-1.46-1.6c0-1.69,1.74-2.09,3.41-2.09Zm3-3c0-2.56-1-4.86-4.61-4.86a8.28,8.28,0,0,0-4.05,1l.59,2a5.71,5.71,0,0,1,2.87-.79c1.7,0,2.1.88,2.1,2-3.71,0-6.37,1.4-6.37,4.4a3.39,3.39,0,0,0,3.5,3.5,3.75,3.75,0,0,0,3.1-1.45h.06l.19,1.22h2.79a17.17,17.17,0,0,1-.17-2.77Zm-9.74-9.08H286.25v2.69h4v13.43h3.1V105.42h4ZM277,114.07a2.2,2.2,0,0,1-2.1,2.51c-1.46,0-2.34-1.4-2.34-3.52s.79-3.66,2.38-3.66c1,0,2.06.83,2.06,2.53Zm3.1-12.07H277v6.31h0A3.1,3.1,0,0,0,274.1,107c-2.52,0-4.72,2.17-4.72,6.16,0,3.54,1.89,6,4.53,6a3.69,3.69,0,0,0,3.29-1.89h.06l.15,1.66h2.72c0-.86-.08-2.16-.08-3.33Zm-19.26,9.79c.09-1.16.71-2.71,2.2-2.71s2,1.49,2,2.71Zm6,4.46a8.59,8.59,0,0,1-2.85.48c-1.68,0-3.1-.8-3.19-2.79h7a7.38,7.38,0,0,0,.08-1.23c0-3.77-1.84-5.79-4.67-5.79-3.42,0-5.34,2.9-5.34,6.25,0,3.62,2.05,5.89,5.66,5.89a9.89,9.89,0,0,0,3.77-.67Zm-15.93-9.07h-1.53v2.28h1.53v5.38c0,1.3.06,4.22,3.42,4.22a6.13,6.13,0,0,0,2.07-.28l0-2.36a4.71,4.71,0,0,1-1,.1c-.94,0-1.38-.59-1.38-2v-5.07h2.58v-2.28H254v-3l-3.06.9Zm-3.06.39a6.43,6.43,0,0,0-2.89-.65c-2.6,0-4.27,1.6-4.27,3.69,0,1.28.79,2.52,3,3.4,1.28.54,1.68.92,1.68,1.63s-.53,1.18-1.62,1.18A6.09,6.09,0,0,1,241,116l-.59,2.24a6.83,6.83,0,0,0,3.29.78c2.92,0,4.59-1.47,4.59-3.69,0-1.62-.92-2.75-2.89-3.56-1.34-.57-1.78-.9-1.78-1.55s.5-1.11,1.44-1.11a4.88,4.88,0,0,1,2.21.6Zm-9.53-.39h-3.1v7.18a2,2,0,0,1-1.91,2.18c-1.28,0-1.78-1.11-1.78-2.87v-6.49h-3.1v6.95c0,3.5,1.51,5,3.73,5a3.9,3.9,0,0,0,3.35-1.78h.06l.15,1.55h2.7c0-1-.1-2.18-.1-3.57ZM226.74,107a3.34,3.34,0,0,0-.69-.07,3.23,3.23,0,0,0-2.89,2.29h-.09l-.12-2h-2.66c0,1,.08,2.2.08,3.64v8h3.1v-6c0-2,1.07-2.93,2.47-2.93a4.58,4.58,0,0,1,.8.06Zm-7.61-4.26h-11v2.69h4v13.43h3.1V105.42h4Z"/><path class="cls-2" d="M296.66,0a21.2,21.2,0,0,0-1.57,42.35c.52-7.61-1.08-8.85-2.73-10.37-3.54-3.25-4.5-8.66-3.19-13.15a18.09,18.09,0,0,1,3.1-5.94,6.54,6.54,0,0,1,3.53-2.2c3.16-.79,6.19,2.43,7.77,6.56,2,5.18,1.52,10.26-2.39,14.4-1.2,1.27-2.46,2.42-2.89,4.62a27.24,27.24,0,0,0-.19,6.08A21.2,21.2,0,0,0,296.66,0Z"/><path class="cls-3" d="M340.35,0a21.2,21.2,0,0,0-1.65,42.34c-.15-8.45-3.75-6.69-5.61-11.47-.69-1.76.4-8.5.61-10.79.14-1.4.53-7.89,1.09-10h.43c.56,3,.06,12.36.84,14.85.66-.14.83.39,1-1.64l.53-5.95a62.32,62.32,0,0,1,.69-7.26h.42c.55,2.73.55,13.86,1.27,14.7,1.53.3,1.07-1.94,1.16-3.17s.18-2.71.29-4.07.08-5.76.53-7.46h.46l1,11.34c.17,1.86-.11,3.17,1.05,3.46,1.06-1.41.36-12,1-14.8H346c.47,2.14.87,8.58,1,10.19.27,2.48,1.4,9,.47,10.9-1.5,3.06-4.51,4.06-5.25,7.91a19.69,19.69,0,0,0-.3,3.25A21.2,21.2,0,0,0,340.35,0Z"/><path class="cls-4" d="M386.24,42.31h0Z"/><path class="cls-4" d="M388.39,42l-.25.05Z"/><path class="cls-4" d="M384,0a21.21,21.21,0,0,0-.09,42.42c.38-2.65.56-4.69.33-5.24-.61-1.45-3-1.61-4-3.19-1.89-2.9-1.29-9.89-1-13,1-10,8.53-15,8.53-3.3V28.74c0,2.6-.45,5.1-.08,7.7.21,1.46.48,3.36.78,5.51A21.21,21.21,0,0,0,384,0Z"/><path class="cls-5" d="M427.71,0a21.22,21.22,0,1,0,21.21,21.21A21.22,21.22,0,0,0,427.71,0Zm0,34.11c-5.27-5.27-10.54-10.54-10.54-15.82A5.27,5.27,0,0,1,422.44,13c2.64,0,3.95,1.32,5.27,3.95C429,14.34,430.35,13,433,13a5.28,5.28,0,0,1,5.28,5.27C438.26,23.57,433,28.84,427.71,34.11Z"/></g></g></svg>